<?xml version="1.0" encoding="UTF-8" standalone="no"?>
<!DOCTYPE svg PUBLIC "-//W3C//DTD SVG 1.1//EN" "http://www.w3.org/Graphics/SVG/1.1/DTD/svg11.dtd">
<svg width="100%" height="100%" viewBox="0 0 3840 1500" version="1.1" xmlns="http://www.w3.org/2000/svg" xmlns:xlink="http://www.w3.org/1999/xlink" xml:space="preserve" xmlns:serif="http://www.serif.com/" style="fill-rule:evenodd;clip-rule:evenodd;stroke-linejoin:round;stroke-miterlimit:2;">
    <g transform="matrix(1,0,0,1,-20600.8,-8994.1)">
        <g id="Background-Complete" serif:id="Background Complete">
        </g>
        <g id="Floor">
        </g>
        <g id="Plant">
        </g>
        <g id="Picture">
        </g>
        <g id="Lamp">
        </g>
        <g id="Layer-1" serif:id="Layer 1">
        </g>
        <g id="Layer-11" serif:id="Layer 1">
        </g>
        <g id="Layer-12" serif:id="Layer 1">
        </g>
        <g id="BACKGROUND">
        </g>
        <g id="OBJECTS">
        </g>
        <g id="office" transform="matrix(1,0,0,1,9698.95,4798.48)">
            <g transform="matrix(1,0,0,1,264.143,-2080.66)">
                <g transform="matrix(1,-0,-0,1,10637.7,6276.28)">
                </g>
                <g transform="matrix(1,-0,-0,1,10637.7,6276.28)">
                </g>
                <g transform="matrix(1,-0,-0,1,10637.7,6276.28)">
                </g>
                <g transform="matrix(1,-0,-0,1,10637.7,6276.28)">
                </g>
                <g transform="matrix(1,-0,-0,1,10637.7,6276.28)">
                </g>
            </g>
            <g transform="matrix(1,0,0,1,1582.05,-2753.73)">
                <g transform="matrix(1,0,0,1,-219.414,0)">
                    <g transform="matrix(1,-0,-0,1,9539.18,6949.35)">
                    </g>
                </g>
                <g transform="matrix(1,0,0,1,-219.414,0)">
                    <g transform="matrix(1,-0,-0,1,9539.18,6949.35)">
                    </g>
                </g>
                <g transform="matrix(1,0,0,1,-219.414,0)">
                    <g transform="matrix(1,-0,-0,1,9539.18,6949.35)">
                    </g>
                </g>
                <g transform="matrix(1,0,0,1,-219.414,0)">
                    <g transform="matrix(1,-0,-0,1,9539.18,6949.35)">
                    </g>
                </g>
            </g>
        </g>
        <g id="OBJECT">
        </g>
        <g id="Layer-13" serif:id="Layer 1">
        </g>
        <g id="Layer-14" serif:id="Layer 1">
        </g>
        <g id="Layer-6" serif:id="Layer 6">
        </g>
        <g id="stars" transform="matrix(3.2,0,0,2.22222,20600.8,8994.1)">
            <rect x="0" y="0" width="1200" height="675" style="fill:none;"/>
            <g id="medium-stars" serif:id="medium stars" opacity="0.35">
                <g transform="matrix(0.391001,0,0,0.563041,211.029,-785.23)">
                    <path d="M337.737,1506.88C337.737,1510.2 335.05,1512.88 331.737,1512.88C328.423,1512.88 325.737,1510.2 325.737,1506.88C325.737,1503.57 328.423,1500.88 331.737,1500.88C335.05,1500.88 337.737,1503.57 337.737,1506.88Z" style="fill:white;fill-rule:nonzero;"/>
                </g>
                <g transform="matrix(0.391001,0,0,0.563041,182.479,-550.106)">
                    <path d="M337.737,1506.88C337.737,1510.2 335.05,1512.88 331.737,1512.88C328.423,1512.88 325.737,1510.2 325.737,1506.88C325.737,1503.57 328.423,1500.88 331.737,1500.88C335.05,1500.88 337.737,1503.57 337.737,1506.88Z" style="fill:white;fill-rule:nonzero;"/>
                </g>
                <g transform="matrix(-0.391001,0,0,0.563041,693.467,-514.314)">
                    <path d="M337.737,1506.88C337.737,1510.2 335.05,1512.88 331.737,1512.88C328.423,1512.88 325.737,1510.2 325.737,1506.88C325.737,1503.57 328.423,1500.88 331.737,1500.88C335.05,1500.88 337.737,1503.57 337.737,1506.88Z" style="fill:white;fill-rule:nonzero;"/>
                </g>
                <g transform="matrix(-0.391001,0,0,0.563041,866.683,-669.206)">
                    <path d="M662.237,1450.88C662.237,1453.92 659.774,1456.38 656.737,1456.38C653.699,1456.38 651.237,1453.92 651.237,1450.88C651.237,1447.85 653.699,1445.38 656.737,1445.38C659.774,1445.38 662.237,1447.85 662.237,1450.88Z" style="fill:white;fill-rule:nonzero;"/>
                </g>
                <g transform="matrix(-0.391001,0,0,0.563041,769.467,-685.899)">
                    <path d="M662.237,1450.88C662.237,1453.92 659.774,1456.38 656.737,1456.38C653.699,1456.38 651.237,1453.92 651.237,1450.88C651.237,1447.85 653.699,1445.38 656.737,1445.38C659.774,1445.38 662.237,1447.85 662.237,1450.88Z" style="fill:white;fill-rule:nonzero;"/>
                </g>
                <g transform="matrix(0.391001,0,0,0.563041,-131.909,-195.794)">
                    <path d="M662.237,1450.88C662.237,1453.92 659.774,1456.38 656.737,1456.38C653.699,1456.38 651.237,1453.92 651.237,1450.88C651.237,1447.85 653.699,1445.38 656.737,1445.38C659.774,1445.38 662.237,1447.85 662.237,1450.88Z" style="fill:white;fill-rule:nonzero;"/>
                </g>
                <g transform="matrix(-0.391001,0,0,0.563041,926.77,-576.077)">
                    <path d="M662.237,1450.88C662.237,1453.92 659.774,1456.38 656.737,1456.38C653.699,1456.38 651.237,1453.92 651.237,1450.88C651.237,1447.85 653.699,1445.38 656.737,1445.38C659.774,1445.38 662.237,1447.85 662.237,1450.88Z" style="fill:white;fill-rule:nonzero;"/>
                </g>
                <g transform="matrix(0.391001,0,0,0.563041,-229.063,-817.781)">
                    <path d="M1676.24,1498.21C1676.24,1501.25 1673.77,1503.71 1670.74,1503.71C1667.7,1503.71 1665.24,1501.25 1665.24,1498.21C1665.24,1495.18 1667.7,1492.71 1670.74,1492.71C1673.77,1492.71 1676.24,1495.18 1676.24,1498.21Z" style="fill:white;fill-rule:nonzero;"/>
                </g>
                <g transform="matrix(-0.391001,0,0,0.563041,1073.16,-721.968)">
                    <path d="M1676.24,1498.21C1676.24,1501.25 1673.77,1503.71 1670.74,1503.71C1667.7,1503.71 1665.24,1501.25 1665.24,1498.21C1665.24,1495.18 1667.7,1492.71 1670.74,1492.71C1673.77,1492.71 1676.24,1495.18 1676.24,1498.21Z" style="fill:white;fill-rule:nonzero;"/>
                </g>
                <g transform="matrix(0.391001,0,0,0.563041,-495.399,-777.939)">
                    <path d="M1676.24,1498.21C1676.24,1501.25 1673.77,1503.71 1670.74,1503.71C1667.7,1503.71 1665.24,1501.25 1665.24,1498.21C1665.24,1495.18 1667.7,1492.71 1670.74,1492.71C1673.77,1492.71 1676.24,1495.18 1676.24,1498.21Z" style="fill:white;fill-rule:nonzero;"/>
                </g>
                <g transform="matrix(-0.391001,0,0,0.563041,1328.75,-777.939)">
                    <path d="M1676.24,1498.21C1676.24,1501.25 1673.77,1503.71 1670.74,1503.71C1667.7,1503.71 1665.24,1501.25 1665.24,1498.21C1665.24,1495.18 1667.7,1492.71 1670.74,1492.71C1673.77,1492.71 1676.24,1495.18 1676.24,1498.21Z" style="fill:white;fill-rule:nonzero;"/>
                </g>
                <g transform="matrix(0.391001,0,0,0.563041,-290.339,-354.267)">
                    <path d="M1676.24,1498.21C1676.24,1501.25 1673.77,1503.71 1670.74,1503.71C1667.7,1503.71 1665.24,1501.25 1665.24,1498.21C1665.24,1495.18 1667.7,1492.71 1670.74,1492.71C1673.77,1492.71 1676.24,1495.18 1676.24,1498.21Z" style="fill:white;fill-rule:nonzero;"/>
                </g>
                <g transform="matrix(-0.391001,0,0,0.563041,1123.69,-354.267)">
                    <path d="M1676.24,1498.21C1676.24,1501.25 1673.77,1503.71 1670.74,1503.71C1667.7,1503.71 1665.24,1501.25 1665.24,1498.21C1665.24,1495.18 1667.7,1492.71 1670.74,1492.71C1673.77,1492.71 1676.24,1495.18 1676.24,1498.21Z" style="fill:white;fill-rule:nonzero;"/>
                </g>
                <g transform="matrix(-0.391001,0,0,0.563041,1248.3,-631.092)">
                    <path d="M662.237,1450.88C662.237,1453.92 659.774,1456.38 656.737,1456.38C653.699,1456.38 651.237,1453.92 651.237,1450.88C651.237,1447.85 653.699,1445.38 656.737,1445.38C659.774,1445.38 662.237,1447.85 662.237,1450.88Z" style="fill:white;fill-rule:nonzero;"/>
                </g>
                <g transform="matrix(-0.391001,0,0,0.563041,1245.08,-368.941)">
                    <path d="M662.237,1450.88C662.237,1453.92 659.774,1456.38 656.737,1456.38C653.699,1456.38 651.237,1453.92 651.237,1450.88C651.237,1447.85 653.699,1445.38 656.737,1445.38C659.774,1445.38 662.237,1447.85 662.237,1450.88Z" style="fill:white;fill-rule:nonzero;"/>
                </g>
                <g transform="matrix(-0.391001,0,0,0.563041,1209.26,-458.532)">
                    <path d="M662.237,1450.88C662.237,1453.92 659.774,1456.38 656.737,1456.38C653.699,1456.38 651.237,1453.92 651.237,1450.88C651.237,1447.85 653.699,1445.38 656.737,1445.38C659.774,1445.38 662.237,1447.85 662.237,1450.88Z" style="fill:white;fill-rule:nonzero;"/>
                </g>
                <g transform="matrix(-0.391001,0,0,0.563041,1695.4,-734.436)">
                    <path d="M1676.24,1498.21C1676.24,1501.25 1673.77,1503.71 1670.74,1503.71C1667.7,1503.71 1665.24,1501.25 1665.24,1498.21C1665.24,1495.18 1667.7,1492.71 1670.74,1492.71C1673.77,1492.71 1676.24,1495.18 1676.24,1498.21Z" style="fill:white;fill-rule:nonzero;"/>
                </g>
                <g transform="matrix(-0.391001,0,0,0.563041,988.971,-741.727)">
                    <path d="M337.737,1506.88C337.737,1510.2 335.05,1512.88 331.737,1512.88C328.423,1512.88 325.737,1510.2 325.737,1506.88C325.737,1503.57 328.423,1500.88 331.737,1500.88C335.05,1500.88 337.737,1503.57 337.737,1506.88Z" style="fill:white;fill-rule:nonzero;"/>
                </g>
                <g transform="matrix(-0.391001,0,0,0.563041,993.523,-230.925)">
                    <path d="M662.237,1450.88C662.237,1453.92 659.774,1456.38 656.737,1456.38C653.699,1456.38 651.237,1453.92 651.237,1450.88C651.237,1447.85 653.699,1445.38 656.737,1445.38C659.774,1445.38 662.237,1447.85 662.237,1450.88Z" style="fill:white;fill-rule:nonzero;"/>
                </g>
                <g transform="matrix(-0.391001,0,0,0.563041,1136.12,-642.395)">
                    <path d="M662.237,1450.88C662.237,1453.92 659.774,1456.38 656.737,1456.38C653.699,1456.38 651.237,1453.92 651.237,1450.88C651.237,1447.85 653.699,1445.38 656.737,1445.38C659.774,1445.38 662.237,1447.85 662.237,1450.88Z" style="fill:white;fill-rule:nonzero;"/>
                </g>
                <g transform="matrix(-0.391001,0,0,0.563041,1429.41,-795.062)">
                    <path d="M1676.24,1498.21C1676.24,1501.25 1673.77,1503.71 1670.74,1503.71C1667.7,1503.71 1665.24,1501.25 1665.24,1498.21C1665.24,1495.18 1667.7,1492.71 1670.74,1492.71C1673.77,1492.71 1676.24,1495.18 1676.24,1498.21Z" style="fill:white;fill-rule:nonzero;"/>
                </g>
                <g transform="matrix(-0.391001,0,0,0.563041,1490.34,-310.764)">
                    <path d="M1676.24,1498.21C1676.24,1501.25 1673.77,1503.71 1670.74,1503.71C1667.7,1503.71 1665.24,1501.25 1665.24,1498.21C1665.24,1495.18 1667.7,1492.71 1670.74,1492.71C1673.77,1492.71 1676.24,1495.18 1676.24,1498.21Z" style="fill:white;fill-rule:nonzero;"/>
                </g>
            </g>
            <g id="small-stars" serif:id="small stars" opacity="0.75">
                <g transform="matrix(0.391001,0,0,0.563041,119.198,-633.932)">
                    <path d="M412.403,1523.22C412.403,1525.43 410.612,1527.22 408.403,1527.22C406.194,1527.22 404.403,1525.43 404.403,1523.22C404.403,1521.01 406.194,1519.22 408.403,1519.22C410.612,1519.22 412.403,1521.01 412.403,1523.22Z" style="fill:white;fill-rule:nonzero;"/>
                </g>
                <g transform="matrix(-0.391001,0,0,0.563041,714.154,-633.932)">
                    <path d="M412.403,1523.22C412.403,1525.43 410.612,1527.22 408.403,1527.22C406.194,1527.22 404.403,1525.43 404.403,1523.22C404.403,1521.01 406.194,1519.22 408.403,1519.22C410.612,1519.22 412.403,1521.01 412.403,1523.22Z" style="fill:white;fill-rule:nonzero;"/>
                </g>
                <g transform="matrix(-0.391001,0,0,0.563041,197.743,-340.636)">
                    <path d="M412.403,1523.22C412.403,1525.43 410.612,1527.22 408.403,1527.22C406.194,1527.22 404.403,1525.43 404.403,1523.22C404.403,1521.01 406.194,1519.22 408.403,1519.22C410.612,1519.22 412.403,1521.01 412.403,1523.22Z" style="fill:white;fill-rule:nonzero;"/>
                </g>
                <g transform="matrix(0.391001,0,0,0.563041,-56.9849,-839.637)">
                    <path d="M412.403,1523.22C412.403,1525.43 410.612,1527.22 408.403,1527.22C406.194,1527.22 404.403,1525.43 404.403,1523.22C404.403,1521.01 406.194,1519.22 408.403,1519.22C410.612,1519.22 412.403,1521.01 412.403,1523.22Z" style="fill:white;fill-rule:nonzero;"/>
                </g>
                <g transform="matrix(-0.391001,0,0,0.563041,890.337,-839.637)">
                    <path d="M412.403,1523.22C412.403,1525.43 410.612,1527.22 408.403,1527.22C406.194,1527.22 404.403,1525.43 404.403,1523.22C404.403,1521.01 406.194,1519.22 408.403,1519.22C410.612,1519.22 412.403,1521.01 412.403,1523.22Z" style="fill:white;fill-rule:nonzero;"/>
                </g>
                <g transform="matrix(0.391001,0,0,0.563041,112.258,-363.619)">
                    <path d="M412.403,1523.22C412.403,1525.43 410.612,1527.22 408.403,1527.22C406.194,1527.22 404.403,1525.43 404.403,1523.22C404.403,1521.01 406.194,1519.22 408.403,1519.22C410.612,1519.22 412.403,1521.01 412.403,1523.22Z" style="fill:white;fill-rule:nonzero;"/>
                </g>
                <g transform="matrix(-0.391001,0,0,0.563041,685.277,-415.966)">
                    <path d="M412.403,1523.22C412.403,1525.43 410.612,1527.22 408.403,1527.22C406.194,1527.22 404.403,1525.43 404.403,1523.22C404.403,1521.01 406.194,1519.22 408.403,1519.22C410.612,1519.22 412.403,1521.01 412.403,1523.22Z" style="fill:white;fill-rule:nonzero;"/>
                </g>
                <g transform="matrix(0.391001,0,0,0.563041,306.843,-792.282)">
                    <path d="M412.403,1523.22C412.403,1525.43 410.612,1527.22 408.403,1527.22C406.194,1527.22 404.403,1525.43 404.403,1523.22C404.403,1521.01 406.194,1519.22 408.403,1519.22C410.612,1519.22 412.403,1521.01 412.403,1523.22Z" style="fill:white;fill-rule:nonzero;"/>
                </g>
                <g transform="matrix(-0.391001,0,0,0.563041,546.289,-796.786)">
                    <path d="M412.403,1523.22C412.403,1525.43 410.612,1527.22 408.403,1527.22C406.194,1527.22 404.403,1525.43 404.403,1523.22C404.403,1521.01 406.194,1519.22 408.403,1519.22C410.612,1519.22 412.403,1521.01 412.403,1523.22Z" style="fill:white;fill-rule:nonzero;"/>
                </g>
                <g transform="matrix(-0.391001,0,0,0.563041,824.568,-776.304)">
                    <path d="M412.403,1523.22C412.403,1525.43 410.612,1527.22 408.403,1527.22C406.194,1527.22 404.403,1525.43 404.403,1523.22C404.403,1521.01 406.194,1519.22 408.403,1519.22C410.612,1519.22 412.403,1521.01 412.403,1523.22Z" style="fill:white;fill-rule:nonzero;"/>
                </g>
                <g transform="matrix(-0.391001,0,0,0.563041,572.158,-381.162)">
                    <path d="M412.403,1523.22C412.403,1525.43 410.612,1527.22 408.403,1527.22C406.194,1527.22 404.403,1525.43 404.403,1523.22C404.403,1521.01 406.194,1519.22 408.403,1519.22C410.612,1519.22 412.403,1521.01 412.403,1523.22Z" style="fill:white;fill-rule:nonzero;"/>
                </g>
                <g transform="matrix(-0.391001,0,0,0.563041,661.623,-245.535)">
                    <path d="M662.237,1450.88C662.237,1453.92 659.774,1456.38 656.737,1456.38C653.699,1456.38 651.237,1453.92 651.237,1450.88C651.237,1447.85 653.699,1445.38 656.737,1445.38C659.774,1445.38 662.237,1447.85 662.237,1450.88Z" style="fill:white;fill-rule:nonzero;"/>
                </g>
                <g transform="matrix(0.391001,0,0,0.563041,-95.3355,-376.263)">
                    <path d="M662.237,1450.88C662.237,1453.92 659.774,1456.38 656.737,1456.38C653.699,1456.38 651.237,1453.92 651.237,1450.88C651.237,1447.85 653.699,1445.38 656.737,1445.38C659.774,1445.38 662.237,1447.85 662.237,1450.88Z" style="fill:white;fill-rule:nonzero;"/>
                </g>
                <g transform="matrix(-0.391001,0,0,0.563041,878.436,-412.444)">
                    <path d="M662.237,1450.88C662.237,1453.92 659.774,1456.38 656.737,1456.38C653.699,1456.38 651.237,1453.92 651.237,1450.88C651.237,1447.85 653.699,1445.38 656.737,1445.38C659.774,1445.38 662.237,1447.85 662.237,1450.88Z" style="fill:white;fill-rule:nonzero;"/>
                </g>
                <g transform="matrix(-0.391001,0,0,0.563041,864.401,-345.781)">
                    <path d="M662.237,1450.88C662.237,1453.92 659.774,1456.38 656.737,1456.38C653.699,1456.38 651.237,1453.92 651.237,1450.88C651.237,1447.85 653.699,1445.38 656.737,1445.38C659.774,1445.38 662.237,1447.85 662.237,1450.88Z" style="fill:white;fill-rule:nonzero;"/>
                </g>
                <g transform="matrix(0.391001,0,0,0.563041,73.8917,-705.458)">
                    <path d="M531.737,1449.88C531.737,1452.09 529.946,1453.88 527.737,1453.88C525.528,1453.88 523.737,1452.09 523.737,1449.88C523.737,1447.67 525.528,1445.88 527.737,1445.88C529.946,1445.88 531.737,1447.67 531.737,1449.88Z" style="fill:white;fill-rule:nonzero;"/>
                </g>
                <g transform="matrix(0.391001,0,0,0.563041,-179.502,-703.148)">
                    <path d="M531.737,1449.88C531.737,1452.09 529.946,1453.88 527.737,1453.88C525.528,1453.88 523.737,1452.09 523.737,1449.88C523.737,1447.67 525.528,1445.88 527.737,1445.88C529.946,1445.88 531.737,1447.67 531.737,1449.88Z" style="fill:white;fill-rule:nonzero;"/>
                </g>
                <g transform="matrix(-0.391001,0,0,0.563041,759.46,-705.458)">
                    <path d="M531.737,1449.88C531.737,1452.09 529.946,1453.88 527.737,1453.88C525.528,1453.88 523.737,1452.09 523.737,1449.88C523.737,1447.67 525.528,1445.88 527.737,1445.88C529.946,1445.88 531.737,1447.67 531.737,1449.88Z" style="fill:white;fill-rule:nonzero;"/>
                </g>
                <g transform="matrix(0.391001,0,0,0.563041,-159.558,-465.436)">
                    <path d="M506.737,1547.38C506.737,1549.87 504.722,1551.88 502.237,1551.88C499.751,1551.88 497.737,1549.87 497.737,1547.38C497.737,1544.9 499.751,1542.88 502.237,1542.88C504.722,1542.88 506.737,1544.9 506.737,1547.38Z" style="fill:white;fill-rule:nonzero;"/>
                </g>
                <g transform="matrix(-0.391001,0,0,0.563041,992.91,-465.436)">
                    <path d="M506.737,1547.38C506.737,1549.87 504.722,1551.88 502.237,1551.88C499.751,1551.88 497.737,1549.87 497.737,1547.38C497.737,1544.9 499.751,1542.88 502.237,1542.88C504.722,1542.88 506.737,1544.9 506.737,1547.38Z" style="fill:white;fill-rule:nonzero;"/>
                </g>
                <g transform="matrix(0.391001,0,0,0.563041,-431.924,-817.841)">
                    <path d="M1584.74,1469.38C1584.74,1471.32 1583.17,1472.88 1581.24,1472.88C1579.3,1472.88 1577.74,1471.32 1577.74,1469.38C1577.74,1467.45 1579.3,1465.88 1581.24,1465.88C1583.17,1465.88 1584.74,1467.45 1584.74,1469.38Z" style="fill:white;fill-rule:nonzero;"/>
                </g>
                <g transform="matrix(-0.391001,0,0,0.563041,1265.28,-817.841)">
                    <path d="M1584.74,1469.38C1584.74,1471.32 1583.17,1472.88 1581.24,1472.88C1579.3,1472.88 1577.74,1471.32 1577.74,1469.38C1577.74,1467.45 1579.3,1465.88 1581.24,1465.88C1583.17,1465.88 1584.74,1467.45 1584.74,1469.38Z" style="fill:white;fill-rule:nonzero;"/>
                </g>
                <g transform="matrix(-0.391001,0,0,0.563041,1044.5,-461.215)">
                    <path d="M1584.74,1469.38C1584.74,1471.32 1583.17,1472.88 1581.24,1472.88C1579.3,1472.88 1577.74,1471.32 1577.74,1469.38C1577.74,1467.45 1579.3,1465.88 1581.24,1465.88C1583.17,1465.88 1584.74,1467.45 1584.74,1469.38Z" style="fill:white;fill-rule:nonzero;"/>
                </g>
                <g transform="matrix(0.391001,0,0,0.563041,-475.016,-555.364)">
                    <path d="M1584.74,1469.38C1584.74,1471.32 1583.17,1472.88 1581.24,1472.88C1579.3,1472.88 1577.74,1471.32 1577.74,1469.38C1577.74,1467.45 1579.3,1465.88 1581.24,1465.88C1583.17,1465.88 1584.74,1467.45 1584.74,1469.38Z" style="fill:white;fill-rule:nonzero;"/>
                </g>
                <g transform="matrix(-0.391001,0,0,0.563041,1313.03,-285.455)">
                    <path d="M412.403,1523.22C412.403,1525.43 410.612,1527.22 408.403,1527.22C406.194,1527.22 404.403,1525.43 404.403,1523.22C404.403,1521.01 406.194,1519.22 408.403,1519.22C410.612,1519.22 412.403,1521.01 412.403,1523.22Z" style="fill:white;fill-rule:nonzero;"/>
                </g>
                <g transform="matrix(-0.391001,0,0,0.563041,1256.98,-796.134)">
                    <path d="M412.403,1523.22C412.403,1525.43 410.612,1527.22 408.403,1527.22C406.194,1527.22 404.403,1525.43 404.403,1523.22C404.403,1521.01 406.194,1519.22 408.403,1519.22C410.612,1519.22 412.403,1521.01 412.403,1523.22Z" style="fill:white;fill-rule:nonzero;"/>
                </g>
                <g transform="matrix(-0.391001,0,0,0.563041,1359.56,-421.932)">
                    <path d="M506.737,1547.38C506.737,1549.87 504.722,1551.88 502.237,1551.88C499.751,1551.88 497.737,1549.87 497.737,1547.38C497.737,1544.9 499.751,1542.88 502.237,1542.88C504.722,1542.88 506.737,1544.9 506.737,1547.38Z" style="fill:white;fill-rule:nonzero;"/>
                </g>
                <g transform="matrix(-0.391001,0,0,0.563041,1610.54,-796.481)">
                    <path d="M1584.74,1469.38C1584.74,1471.32 1583.17,1472.88 1581.24,1472.88C1579.3,1472.88 1577.74,1471.32 1577.74,1469.38C1577.74,1467.45 1579.3,1465.88 1581.24,1465.88C1583.17,1465.88 1584.74,1467.45 1584.74,1469.38Z" style="fill:white;fill-rule:nonzero;"/>
                </g>
                <g transform="matrix(-0.391001,0,0,0.563041,1667.53,-551.89)">
                    <path d="M1584.74,1469.38C1584.74,1471.32 1583.17,1472.88 1581.24,1472.88C1579.3,1472.88 1577.74,1471.32 1577.74,1469.38C1577.74,1467.45 1579.3,1465.88 1581.24,1465.88C1583.17,1465.88 1584.74,1467.45 1584.74,1469.38Z" style="fill:white;fill-rule:nonzero;"/>
                </g>
                <g transform="matrix(-0.391001,0,0,0.563041,1080.8,-590.429)">
                    <path d="M412.403,1523.22C412.403,1525.43 410.612,1527.22 408.403,1527.22C406.194,1527.22 404.403,1525.43 404.403,1523.22C404.403,1521.01 406.194,1519.22 408.403,1519.22C410.612,1519.22 412.403,1521.01 412.403,1523.22Z" style="fill:white;fill-rule:nonzero;"/>
                </g>
                <g transform="matrix(-0.391001,0,0,0.563041,1051.92,-372.462)">
                    <path d="M412.403,1523.22C412.403,1525.43 410.612,1527.22 408.403,1527.22C406.194,1527.22 404.403,1525.43 404.403,1523.22C404.403,1521.01 406.194,1519.22 408.403,1519.22C410.612,1519.22 412.403,1521.01 412.403,1523.22Z" style="fill:white;fill-rule:nonzero;"/>
                </g>
                <g transform="matrix(-0.391001,0,0,0.563041,986.156,-309.129)">
                    <path d="M412.403,1523.22C412.403,1525.43 410.612,1527.22 408.403,1527.22C406.194,1527.22 404.403,1525.43 404.403,1523.22C404.403,1521.01 406.194,1519.22 408.403,1519.22C410.612,1519.22 412.403,1521.01 412.403,1523.22Z" style="fill:white;fill-rule:nonzero;"/>
                </g>
                <g transform="matrix(-0.391001,0,0,0.563041,1126.11,-661.954)">
                    <path d="M531.737,1449.88C531.737,1452.09 529.946,1453.88 527.737,1453.88C525.528,1453.88 523.737,1452.09 523.737,1449.88C523.737,1447.67 525.528,1445.88 527.737,1445.88C529.946,1445.88 531.737,1447.67 531.737,1449.88Z" style="fill:white;fill-rule:nonzero;"/>
                </g>
                <g transform="matrix(-0.391001,0,0,0.563041,622.527,-567.268)">
                    <path d="M531.737,1449.88C531.737,1452.09 529.946,1453.88 527.737,1453.88C525.528,1453.88 523.737,1452.09 523.737,1449.88C523.737,1447.67 525.528,1445.88 527.737,1445.88C529.946,1445.88 531.737,1447.67 531.737,1449.88Z" style="fill:white;fill-rule:nonzero;"/>
                </g>
                <g transform="matrix(-0.391001,0,0,0.563041,1426.86,-350.666)">
                    <path d="M1584.74,1469.38C1584.74,1471.32 1583.17,1472.88 1581.24,1472.88C1579.3,1472.88 1577.74,1471.32 1577.74,1469.38C1577.74,1467.45 1579.3,1465.88 1581.24,1465.88C1583.17,1465.88 1584.74,1467.45 1584.74,1469.38Z" style="fill:white;fill-rule:nonzero;"/>
                </g>
            </g>
            <g>
                <g transform="matrix(0.391001,0,0,0.563041,-53.5373,-354.201)">
                    <path d="M412.403,1523.22C412.403,1525.43 410.612,1527.22 408.403,1527.22C406.194,1527.22 404.403,1525.43 404.403,1523.22C404.403,1521.01 406.194,1519.22 408.403,1519.22C410.612,1519.22 412.403,1521.01 412.403,1523.22Z" style="fill:rgb(252,240,152);fill-rule:nonzero;"/>
                </g>
                <g transform="matrix(-0.391001,0,0,0.563041,886.889,-354.201)">
                    <path d="M412.403,1523.22C412.403,1525.43 410.612,1527.22 408.403,1527.22C406.194,1527.22 404.403,1525.43 404.403,1523.22C404.403,1521.01 406.194,1519.22 408.403,1519.22C410.612,1519.22 412.403,1521.01 412.403,1523.22Z" style="fill:rgb(252,240,152);fill-rule:nonzero;"/>
                </g>
                <g transform="matrix(-0.391001,0,0,0.563041,821.816,-603.009)">
                    <path d="M412.403,1523.22C412.403,1525.43 410.612,1527.22 408.403,1527.22C406.194,1527.22 404.403,1525.43 404.403,1523.22C404.403,1521.01 406.194,1519.22 408.403,1519.22C410.612,1519.22 412.403,1521.01 412.403,1523.22Z" style="fill:white;fill-rule:nonzero;"/>
                </g>
                <g transform="matrix(-0.391001,0,0,0.563041,562.09,-699.675)">
                    <path d="M506.737,1547.38C506.737,1549.87 504.722,1551.88 502.237,1551.88C499.751,1551.88 497.737,1549.87 497.737,1547.38C497.737,1544.9 499.751,1542.88 502.237,1542.88C504.722,1542.88 506.737,1544.9 506.737,1547.38Z" style="fill:rgb(252,240,152);fill-rule:nonzero;"/>
                </g>
                <g transform="matrix(0.391001,0,0,0.563041,151.509,-512.17)">
                    <path d="M506.737,1547.38C506.737,1549.87 504.722,1551.88 502.237,1551.88C499.751,1551.88 497.737,1549.87 497.737,1547.38C497.737,1544.9 499.751,1542.88 502.237,1542.88C504.722,1542.88 506.737,1544.9 506.737,1547.38Z" style="fill:rgb(252,240,152);fill-rule:nonzero;"/>
                </g>
                <g transform="matrix(0.391001,0,0,0.563041,-26.2887,-592.071)">
                    <path d="M506.737,1547.38C506.737,1549.87 504.722,1551.88 502.237,1551.88C499.751,1551.88 497.737,1549.87 497.737,1547.38C497.737,1544.9 499.751,1542.88 502.237,1542.88C504.722,1542.88 506.737,1544.9 506.737,1547.38Z" style="fill:rgb(252,240,152);fill-rule:nonzero;"/>
                </g>
                <g transform="matrix(-0.391001,0,0,0.563041,679.468,-597.303)">
                    <path d="M506.737,1547.38C506.737,1549.87 504.722,1551.88 502.237,1551.88C499.751,1551.88 497.737,1549.87 497.737,1547.38C497.737,1544.9 499.751,1542.88 502.237,1542.88C504.722,1542.88 506.737,1544.9 506.737,1547.38Z" style="fill:rgb(252,240,152);fill-rule:nonzero;"/>
                </g>
                <g transform="matrix(0.391001,0,0,0.563041,-510.222,-593.508)">
                    <path d="M1475.74,1456.38C1475.74,1458.87 1473.72,1460.88 1471.24,1460.88C1468.75,1460.88 1466.74,1458.87 1466.74,1456.38C1466.74,1453.9 1468.75,1451.88 1471.24,1451.88C1473.72,1451.88 1475.74,1453.9 1475.74,1456.38Z" style="fill:rgb(252,240,152);fill-rule:nonzero;"/>
                </g>
                <g transform="matrix(0.391001,0,0,0.563041,-336.702,-192.93)">
                    <path d="M1475.74,1456.38C1475.74,1458.87 1473.72,1460.88 1471.24,1460.88C1468.75,1460.88 1466.74,1458.87 1466.74,1456.38C1466.74,1453.9 1468.75,1451.88 1471.24,1451.88C1473.72,1451.88 1475.74,1453.9 1475.74,1456.38Z" style="fill:rgb(252,240,152);fill-rule:nonzero;"/>
                </g>
                <g transform="matrix(-0.391001,0,0,0.563041,1170.05,-192.93)">
                    <path d="M1475.74,1456.38C1475.74,1458.87 1473.72,1460.88 1471.24,1460.88C1468.75,1460.88 1466.74,1458.87 1466.74,1456.38C1466.74,1453.9 1468.75,1451.88 1471.24,1451.88C1473.72,1451.88 1475.74,1453.9 1475.74,1456.38Z" style="fill:rgb(252,240,152);fill-rule:nonzero;"/>
                </g>
                <g transform="matrix(0.391001,0,0,0.563041,-463.486,-421.171)">
                    <path d="M1475.74,1456.38C1475.74,1458.87 1473.72,1460.88 1471.24,1460.88C1468.75,1460.88 1466.74,1458.87 1466.74,1456.38C1466.74,1453.9 1468.75,1451.88 1471.24,1451.88C1473.72,1451.88 1475.74,1453.9 1475.74,1456.38Z" style="fill:rgb(252,240,152);fill-rule:nonzero;"/>
                </g>
                <g transform="matrix(-0.391001,0,0,0.563041,1296.84,-421.171)">
                    <path d="M1475.74,1456.38C1475.74,1458.87 1473.72,1460.88 1471.24,1460.88C1468.75,1460.88 1466.74,1458.87 1466.74,1456.38C1466.74,1453.9 1468.75,1451.88 1471.24,1451.88C1473.72,1451.88 1475.74,1453.9 1475.74,1456.38Z" style="fill:rgb(252,240,152);fill-rule:nonzero;"/>
                </g>
                <g transform="matrix(-0.391001,0,0,0.563041,1387.49,-532.27)">
                    <path d="M1584.74,1469.38C1584.74,1471.32 1583.17,1472.88 1581.24,1472.88C1579.3,1472.88 1577.74,1471.32 1577.74,1469.38C1577.74,1467.45 1579.3,1465.88 1581.24,1465.88C1583.17,1465.88 1584.74,1467.45 1584.74,1469.38Z" style="fill:white;fill-rule:nonzero;"/>
                </g>
                <g transform="matrix(0.391001,0,0,0.563041,-350.5,-690.76)">
                    <path d="M1406.74,1549.38C1406.74,1551.87 1404.72,1553.88 1402.24,1553.88C1399.75,1553.88 1397.74,1551.87 1397.74,1549.38C1397.74,1546.9 1399.75,1544.88 1402.24,1544.88C1404.72,1544.88 1406.74,1546.9 1406.74,1549.38Z" style="fill:rgb(191,171,22);fill-rule:nonzero;"/>
                </g>
                <g transform="matrix(-0.391001,0,0,0.563041,1153.38,-692.299)">
                    <path d="M1406.74,1549.38C1406.74,1551.87 1404.72,1553.88 1402.24,1553.88C1399.75,1553.88 1397.74,1551.87 1397.74,1549.38C1397.74,1546.9 1399.75,1544.88 1402.24,1544.88C1404.72,1544.88 1406.74,1546.9 1406.74,1549.38Z" style="fill:rgb(191,171,22);fill-rule:nonzero;"/>
                </g>
                <g transform="matrix(0.391001,0,0,0.563041,-355.974,-325.257)">
                    <path d="M1406.74,1549.38C1406.74,1551.87 1404.72,1553.88 1402.24,1553.88C1399.75,1553.88 1397.74,1551.87 1397.74,1549.38C1397.74,1546.9 1399.75,1544.88 1402.24,1544.88C1404.72,1544.88 1406.74,1546.9 1406.74,1549.38Z" style="fill:rgb(191,171,22);fill-rule:nonzero;"/>
                </g>
                <g transform="matrix(-0.391001,0,0,0.563041,1199.44,-321.408)">
                    <path d="M1406.74,1549.38C1406.74,1551.87 1404.72,1553.88 1402.24,1553.88C1399.75,1553.88 1397.74,1551.87 1397.74,1549.38C1397.74,1546.9 1399.75,1544.88 1402.24,1544.88C1404.72,1544.88 1406.74,1546.9 1406.74,1549.38Z" style="fill:rgb(191,171,22);fill-rule:nonzero;"/>
                </g>
                <g transform="matrix(0.391001,0,0,0.563041,-55.531,-510.762)">
                    <path d="M1406.74,1549.38C1406.74,1551.87 1404.72,1553.88 1402.24,1553.88C1399.75,1553.88 1397.74,1551.87 1397.74,1549.38C1397.74,1546.9 1399.75,1544.88 1402.24,1544.88C1404.72,1544.88 1406.74,1546.9 1406.74,1549.38Z" style="fill:rgb(191,171,22);fill-rule:nonzero;"/>
                </g>
                <g transform="matrix(-0.391001,0,0,0.563041,1043.48,-233.986)">
                    <path d="M1406.74,1549.38C1406.74,1551.87 1404.72,1553.88 1402.24,1553.88C1399.75,1553.88 1397.74,1551.87 1397.74,1549.38C1397.74,1546.9 1399.75,1544.88 1402.24,1544.88C1404.72,1544.88 1406.74,1546.9 1406.74,1549.38Z" style="fill:rgb(191,171,22);fill-rule:nonzero;"/>
                </g>
                <g transform="matrix(-0.391001,0,0,0.563041,1246.96,-232.947)">
                    <path d="M412.403,1523.22C412.403,1525.43 410.612,1527.22 408.403,1527.22C406.194,1527.22 404.403,1525.43 404.403,1523.22C404.403,1521.01 406.194,1519.22 408.403,1519.22C410.612,1519.22 412.403,1521.01 412.403,1523.22Z" style="fill:rgb(252,240,152);fill-rule:nonzero;"/>
                </g>
                <g transform="matrix(-0.391001,0,0,0.563041,1741.76,-573.099)">
                    <path d="M1475.74,1456.38C1475.74,1458.87 1473.72,1460.88 1471.24,1460.88C1468.75,1460.88 1466.74,1458.87 1466.74,1456.38C1466.74,1453.9 1468.75,1451.88 1471.24,1451.88C1473.72,1451.88 1475.74,1453.9 1475.74,1456.38Z" style="fill:rgb(252,240,152);fill-rule:nonzero;"/>
                </g>
                <g transform="matrix(-0.391001,0,0,0.563041,1536.7,-149.427)">
                    <path d="M1475.74,1456.38C1475.74,1458.87 1473.72,1460.88 1471.24,1460.88C1468.75,1460.88 1466.74,1458.87 1466.74,1456.38C1466.74,1453.9 1468.75,1451.88 1471.24,1451.88C1473.72,1451.88 1475.74,1453.9 1475.74,1456.38Z" style="fill:rgb(252,240,152);fill-rule:nonzero;"/>
                </g>
                <g transform="matrix(-0.391001,0,0,0.563041,1659.21,-343.796)">
                    <path d="M1475.74,1456.38C1475.74,1458.87 1473.72,1460.88 1471.24,1460.88C1468.75,1460.88 1466.74,1458.87 1466.74,1456.38C1466.74,1453.9 1468.75,1451.88 1471.24,1451.88C1473.72,1451.88 1475.74,1453.9 1475.74,1456.38Z" style="fill:rgb(252,240,152);fill-rule:nonzero;"/>
                </g>
                <g transform="matrix(-0.391001,0,0,0.563041,1535,-654.185)">
                    <path d="M1406.74,1549.38C1406.74,1551.87 1404.72,1553.88 1402.24,1553.88C1399.75,1553.88 1397.74,1551.87 1397.74,1549.38C1397.74,1546.9 1399.75,1544.88 1402.24,1544.88C1404.72,1544.88 1406.74,1546.9 1406.74,1549.38Z" style="fill:rgb(191,171,22);fill-rule:nonzero;"/>
                </g>
                <g transform="matrix(-0.391001,0,0,0.563041,1566.09,-277.905)">
                    <path d="M1406.74,1549.38C1406.74,1551.87 1404.72,1553.88 1402.24,1553.88C1399.75,1553.88 1397.74,1551.87 1397.74,1549.38C1397.74,1546.9 1399.75,1544.88 1402.24,1544.88C1404.72,1544.88 1406.74,1546.9 1406.74,1549.38Z" style="fill:rgb(191,171,22);fill-rule:nonzero;"/>
                </g>
                <g transform="matrix(-0.391001,0,0,0.563041,986.474,-673.877)">
                    <path d="M506.737,1547.38C506.737,1549.87 504.722,1551.88 502.237,1551.88C499.751,1551.88 497.737,1549.87 497.737,1547.38C497.737,1544.9 499.751,1542.88 502.237,1542.88C504.722,1542.88 506.737,1544.9 506.737,1547.38Z" style="fill:rgb(252,240,152);fill-rule:nonzero;"/>
                </g>
                <g transform="matrix(-0.391001,0,0,0.563041,1076.68,-476.655)">
                    <path d="M506.737,1547.38C506.737,1549.87 504.722,1551.88 502.237,1551.88C499.751,1551.88 497.737,1549.87 497.737,1547.38C497.737,1544.9 499.751,1542.88 502.237,1542.88C504.722,1542.88 506.737,1544.9 506.737,1547.38Z" style="fill:rgb(252,240,152);fill-rule:nonzero;"/>
                </g>
                <g transform="matrix(-0.391001,0,0,0.563041,1252.42,-236.671)">
                    <path d="M1406.74,1549.38C1406.74,1551.87 1404.72,1553.88 1402.24,1553.88C1399.75,1553.88 1397.74,1551.87 1397.74,1549.38C1397.74,1546.9 1399.75,1544.88 1402.24,1544.88C1404.72,1544.88 1406.74,1546.9 1406.74,1549.38Z" style="fill:rgb(191,171,22);fill-rule:nonzero;"/>
                </g>
            </g>
            <g id="large-stars" serif:id="large stars" opacity="0.5">
                <g transform="matrix(0.391001,0,0,0.563041,-202.889,-256.287)">
                    <path d="M626.07,1528.88C626.07,1535.14 620.996,1540.21 614.737,1540.21C608.478,1540.21 603.404,1535.14 603.404,1528.88C603.404,1522.62 608.478,1517.55 614.737,1517.55C620.996,1517.55 626.07,1522.62 626.07,1528.88Z" style="fill:white;fill-rule:nonzero;"/>
                </g>
                <g transform="matrix(-0.391001,0,0,0.563041,1036.78,-253.208)">
                    <path d="M626.07,1528.88C626.07,1535.14 620.996,1540.21 614.737,1540.21C608.478,1540.21 603.404,1535.14 603.404,1528.88C603.404,1522.62 608.478,1517.55 614.737,1517.55C620.996,1517.55 626.07,1522.62 626.07,1528.88Z" style="fill:white;fill-rule:nonzero;"/>
                </g>
                <g transform="matrix(0.391001,0,0,0.563041,-149.392,-825.221)">
                    <path d="M476.237,1495.22C476.237,1499.91 472.431,1503.72 467.737,1503.72C463.042,1503.72 459.237,1499.91 459.237,1495.22C459.237,1490.52 463.042,1486.72 467.737,1486.72C472.431,1486.72 476.237,1490.52 476.237,1495.22Z" style="fill:white;fill-rule:nonzero;"/>
                </g>
                <g transform="matrix(-0.391001,0,0,0.563041,982.744,-825.221)">
                    <path d="M476.237,1495.22C476.237,1499.91 472.431,1503.72 467.737,1503.72C463.042,1503.72 459.237,1499.91 459.237,1495.22C459.237,1490.52 463.042,1486.72 467.737,1486.72C472.431,1486.72 476.237,1490.52 476.237,1495.22Z" style="fill:white;fill-rule:nonzero;"/>
                </g>
                <g transform="matrix(0.391001,0,0,0.563041,65.0805,-483.719)">
                    <path d="M476.237,1495.22C476.237,1499.91 472.431,1503.72 467.737,1503.72C463.042,1503.72 459.237,1499.91 459.237,1495.22C459.237,1490.52 463.042,1486.72 467.737,1486.72C472.431,1486.72 476.237,1490.52 476.237,1495.22Z" style="fill:white;fill-rule:nonzero;"/>
                </g>
                <g transform="matrix(-0.391001,0,0,0.563041,637.344,-264.939)">
                    <path d="M476.237,1495.22C476.237,1499.91 472.431,1503.72 467.737,1503.72C463.042,1503.72 459.237,1499.91 459.237,1495.22C459.237,1490.52 463.042,1486.72 467.737,1486.72C472.431,1486.72 476.237,1490.52 476.237,1495.22Z" style="fill:white;fill-rule:nonzero;"/>
                </g>
                <g transform="matrix(-0.391001,0,0,0.563041,1057.37,-683.72)">
                    <path d="M1484.24,1513.38C1484.24,1518.91 1479.76,1523.38 1474.24,1523.38C1468.71,1523.38 1464.24,1518.91 1464.24,1513.38C1464.24,1507.86 1468.71,1503.38 1474.24,1503.38C1479.76,1503.38 1484.24,1507.86 1484.24,1513.38Z" style="fill:white;fill-rule:nonzero;"/>
                </g>
                <g transform="matrix(0.391001,0,0,0.563041,-283.1,-830.496)">
                    <path d="M1484.24,1513.38C1484.24,1518.91 1479.76,1523.38 1474.24,1523.38C1468.71,1523.38 1464.24,1518.91 1464.24,1513.38C1464.24,1507.86 1468.71,1503.38 1474.24,1503.38C1479.76,1503.38 1484.24,1507.86 1484.24,1513.38Z" style="fill:white;fill-rule:nonzero;"/>
                </g>
                <g transform="matrix(-0.391001,0,0,0.563041,1116.45,-830.496)">
                    <path d="M1484.24,1513.38C1484.24,1518.91 1479.76,1523.38 1474.24,1523.38C1468.71,1523.38 1464.24,1518.91 1464.24,1513.38C1464.24,1507.86 1468.71,1503.38 1474.24,1503.38C1479.76,1503.38 1484.24,1507.86 1484.24,1513.38Z" style="fill:white;fill-rule:nonzero;"/>
                </g>
                <g transform="matrix(0.391001,0,0,0.563041,-481.02,-721.212)">
                    <path d="M1484.24,1513.38C1484.24,1518.91 1479.76,1523.38 1474.24,1523.38C1468.71,1523.38 1464.24,1518.91 1464.24,1513.38C1464.24,1507.86 1468.71,1503.38 1474.24,1503.38C1479.76,1503.38 1484.24,1507.86 1484.24,1513.38Z" style="fill:white;fill-rule:nonzero;"/>
                </g>
                <g transform="matrix(-0.391001,0,0,0.563041,1307.96,-710.435)">
                    <path d="M1484.24,1513.38C1484.24,1518.91 1479.76,1523.38 1474.24,1523.38C1468.71,1523.38 1464.24,1518.91 1464.24,1513.38C1464.24,1507.86 1468.71,1503.38 1474.24,1503.38C1479.76,1503.38 1484.24,1507.86 1484.24,1513.38Z" style="fill:white;fill-rule:nonzero;"/>
                </g>
                <g transform="matrix(0.391001,0,0,0.563041,-265.269,-272.907)">
                    <path d="M1484.24,1513.38C1484.24,1518.91 1479.76,1523.38 1474.24,1523.38C1468.71,1523.38 1464.24,1518.91 1464.24,1513.38C1464.24,1507.86 1468.71,1503.38 1474.24,1503.38C1479.76,1503.38 1484.24,1507.86 1484.24,1513.38Z" style="fill:white;fill-rule:nonzero;"/>
                </g>
                <g transform="matrix(-0.391001,0,0,0.563041,1138.74,-338.526)">
                    <path d="M1484.24,1513.38C1484.24,1518.91 1479.76,1523.38 1474.24,1523.38C1468.71,1523.38 1464.24,1518.91 1464.24,1513.38C1464.24,1507.86 1468.71,1503.38 1474.24,1503.38C1479.76,1503.38 1484.24,1507.86 1484.24,1513.38Z" style="fill:white;fill-rule:nonzero;"/>
                </g>
                <g transform="matrix(0.391001,0,0,0.563041,-598.978,-546.077)">
                    <path d="M1613.07,1524.21C1613.07,1529.74 1608.59,1534.21 1603.07,1534.21C1597.55,1534.21 1593.07,1529.74 1593.07,1524.21C1593.07,1518.69 1597.55,1514.21 1603.07,1514.21C1608.59,1514.21 1613.07,1518.69 1613.07,1524.21Z" style="fill:white;fill-rule:nonzero;"/>
                </g>
                <g transform="matrix(-0.391001,0,0,0.563041,1195.05,-470.743)">
                    <path d="M1342.74,1461.88C1342.74,1467.13 1338.48,1471.38 1333.24,1471.38C1327.99,1471.38 1323.74,1467.13 1323.74,1461.88C1323.74,1456.64 1327.99,1452.38 1333.24,1452.38C1338.48,1452.38 1342.74,1456.64 1342.74,1461.88Z" style="fill:white;fill-rule:nonzero;"/>
                </g>
                <g transform="matrix(-0.391001,0,0,0.563041,1402.89,-212.784)">
                    <path d="M626.07,1528.88C626.07,1535.14 620.996,1540.21 614.737,1540.21C608.478,1540.21 603.404,1535.14 603.404,1528.88C603.404,1522.62 608.478,1517.55 614.737,1517.55C620.996,1517.55 626.07,1522.62 626.07,1528.88Z" style="fill:white;fill-rule:nonzero;"/>
                </g>
                <g transform="matrix(-0.391001,0,0,0.563041,1349.39,-781.718)">
                    <path d="M476.237,1495.22C476.237,1499.91 472.431,1503.72 467.737,1503.72C463.042,1503.72 459.237,1499.91 459.237,1495.22C459.237,1490.52 463.042,1486.72 467.737,1486.72C472.431,1486.72 476.237,1490.52 476.237,1495.22Z" style="fill:white;fill-rule:nonzero;"/>
                </g>
                <g transform="matrix(-0.391001,0,0,0.563041,1140.83,-314.937)">
                    <path d="M476.237,1495.22C476.237,1499.91 472.431,1503.72 467.737,1503.72C463.042,1503.72 459.237,1499.91 459.237,1495.22C459.237,1490.52 463.042,1486.72 467.737,1486.72C472.431,1486.72 476.237,1490.52 476.237,1495.22Z" style="fill:white;fill-rule:nonzero;"/>
                </g>
                <g transform="matrix(-0.391001,0,0,0.563041,1678.35,-663.083)">
                    <path d="M1484.24,1513.38C1484.24,1518.91 1479.76,1523.38 1474.24,1523.38C1468.71,1523.38 1464.24,1518.91 1464.24,1513.38C1464.24,1507.86 1468.71,1503.38 1474.24,1503.38C1479.76,1503.38 1484.24,1507.86 1484.24,1513.38Z" style="fill:white;fill-rule:nonzero;"/>
                </g>
                <g transform="matrix(-0.391001,0,0,0.563041,1798.98,-502.574)">
                    <path d="M1613.07,1524.21C1613.07,1529.74 1608.59,1534.21 1603.07,1534.21C1597.55,1534.21 1593.07,1529.74 1593.07,1524.21C1593.07,1518.69 1597.55,1514.21 1603.07,1514.21C1608.59,1514.21 1613.07,1518.69 1613.07,1524.21Z" style="fill:white;fill-rule:nonzero;"/>
                </g>
                <g transform="matrix(-0.391001,0,0,0.563041,1588.43,-456.492)">
                    <path d="M1342.74,1461.88C1342.74,1467.13 1338.48,1471.38 1333.24,1471.38C1327.99,1471.38 1323.74,1467.13 1323.74,1461.88C1323.74,1456.64 1327.99,1452.38 1333.24,1452.38C1338.48,1452.38 1342.74,1456.64 1342.74,1461.88Z" style="fill:white;fill-rule:nonzero;"/>
                </g>
                <g transform="matrix(-0.391001,0,0,0.563041,1440.36,-599.562)">
                    <path d="M1484.24,1513.38C1484.24,1518.91 1479.76,1523.38 1474.24,1523.38C1468.71,1523.38 1464.24,1518.91 1464.24,1513.38C1464.24,1507.86 1468.71,1503.38 1474.24,1503.38C1479.76,1503.38 1484.24,1507.86 1484.24,1513.38Z" style="fill:white;fill-rule:nonzero;"/>
                </g>
                <g transform="matrix(-0.391001,0,0,0.563041,1483.1,-786.993)">
                    <path d="M1484.24,1513.38C1484.24,1518.91 1479.76,1523.38 1474.24,1523.38C1468.71,1523.38 1464.24,1518.91 1464.24,1513.38C1464.24,1507.86 1468.71,1503.38 1474.24,1503.38C1479.76,1503.38 1484.24,1507.86 1484.24,1513.38Z" style="fill:white;fill-rule:nonzero;"/>
                </g>
                <g transform="matrix(-0.391001,0,0,0.563041,1465.27,-229.403)">
                    <path d="M1484.24,1513.38C1484.24,1518.91 1479.76,1523.38 1474.24,1523.38C1468.71,1523.38 1464.24,1518.91 1464.24,1513.38C1464.24,1507.86 1468.71,1503.38 1474.24,1503.38C1479.76,1503.38 1484.24,1507.86 1484.24,1513.38Z" style="fill:white;fill-rule:nonzero;"/>
                </g>
            </g>
        </g>
        <g id="Layer-15" serif:id="Layer 1">
        </g>
    </g>
</svg>
